<?xml version="1.0" encoding="utf-8"?>
<!-- Generator: Adobe Illustrator 24.0.1, SVG Export Plug-In . SVG Version: 6.00 Build 0)  -->
<svg version="1.1" id="Calque_1" xmlns="http://www.w3.org/2000/svg" xmlns:xlink="http://www.w3.org/1999/xlink" x="0px" y="0px"
	 viewBox="0 0 1000 1000" style="enable-background:new 0 0 1000 1000;" xml:space="preserve">
<style type="text/css">
	.st0{fill:#9AA0A6;}
</style>
<path class="st0" d="M717.4,636.5l-51.4-7.6l-7.6-7.6c53.4-61.1,86-140.7,86-228.2c0-191.8-155.4-347.2-347.2-347.2
	S50,201.3,50,393.1c0,191.8,155.4,347.2,347.2,347.2c88.7,0,169.4-33.5,230.7-88.3l7.5,7.5l7.6,51.4l263.6,263.6l74.4-74.4
	L717.4,636.5z M397.2,635.1c-133.6,0-242-108.3-242-242c0-133.6,108.3-242,242-242s242,108.3,242,242
	C639.2,526.7,530.8,635.1,397.2,635.1z"/>
</svg>
